<?xml version="1.0" standalone="no"?>
<!DOCTYPE svg PUBLIC "-//W3C//DTD SVG 20010904//EN"
 "http://www.w3.org/TR/2001/REC-SVG-20010904/DTD/svg10.dtd">
<svg version="1.0" xmlns="http://www.w3.org/2000/svg"
 width="512.000000pt" height="512.000000pt" viewBox="0 0 512.000000 512.000000"
 preserveAspectRatio="xMidYMid meet">
<metadata>
Created by potrace 1.11, written by Peter Selinger 2001-2013
</metadata>
<g transform="translate(0.000000,512.000000) scale(0.100000,-0.100000)"
fill="#000000" stroke="none">
<path d="M2378 5115 c-1 -1 -39 -5 -82 -9 -44 -4 -82 -9 -85 -11 -4 -2 -34 -7
-66 -10 -117 -14 -472 -111 -499 -136 -6 -5 -16 -9 -23 -9 -29 0 -251 -109
-387 -190 -548 -327 -962 -870 -1140 -1495 -14 -49 -27 -102 -30 -118 -3 -15
-7 -35 -10 -45 -3 -9 -7 -34 -11 -56 -3 -21 -7 -41 -9 -45 -4 -6 -12 -72 -26
-201 -8 -84 -5 -454 4 -515 30 -185 38 -229 52 -290 52 -226 166 -519 270
-692 10 -17 36 -60 57 -95 45 -75 166 -238 237 -319 316 -360 725 -625 1185
-768 123 -38 289 -74 405 -87 30 -3 76 -10 103 -14 48 -7 472 -5 517 4 14 2
45 7 70 10 25 4 92 16 150 27 58 12 115 23 128 25 38 7 320 103 370 125 91 41
245 121 321 166 636 382 1088 1046 1207 1773 38 235 40 573 5 805 -97 635
-436 1219 -943 1622 -155 123 -369 253 -543 329 -44 20 -89 39 -100 44 -86 38
-365 119 -465 134 -19 3 -46 8 -60 11 -14 3 -45 8 -70 11 -25 3 -56 8 -70 10
-27 6 -456 14 -462 9z m745 -2835 l-1033 -1035 -560 560 c-308 308 -559 564
-557 570 2 5 84 91 183 191 l179 181 378 -376 377 -376 846 846 845 845 188
-185 188 -186 -1034 -1035z"/>
</g>
</svg>
